<mxfile host="app.diagrams.net" modified="2022-09-02T09:05:21.211Z" agent="5.0 (Windows NT 10.0; Win64; x64) AppleWebKit/537.36 (KHTML, like Gecko) Chrome/103.0.5060.134 Safari/537.36 Edg/103.0.1264.77" etag="kt3li6otJcOcXu7ReTEQ" version="20.2.8" type="github">
  <diagram id="DAqMi9Ss78NHq_FXzXEW" name="Page-1">
    <mxGraphModel dx="1422" dy="762" grid="0" gridSize="10" guides="1" tooltips="1" connect="1" arrows="1" fold="1" page="1" pageScale="1" pageWidth="1169" pageHeight="827" math="0" shadow="0">
      <root>
        <mxCell id="0" />
        <mxCell id="1" parent="0" />
        <mxCell id="mIhJ6IyPEhb2iyAgKl9o-9" value="" style="rounded=1;whiteSpace=wrap;html=1;dashed=1;" parent="1" vertex="1">
          <mxGeometry x="107" y="172" width="331" height="392" as="geometry" />
        </mxCell>
        <mxCell id="mIhJ6IyPEhb2iyAgKl9o-6" value="" style="rounded=1;whiteSpace=wrap;html=1;dashed=1;" parent="1" vertex="1">
          <mxGeometry x="655" y="165" width="410" height="392" as="geometry" />
        </mxCell>
        <mxCell id="mIhJ6IyPEhb2iyAgKl9o-1" value="" style="sketch=0;points=[[0.015,0.015,0],[0.985,0.015,0],[0.985,0.985,0],[0.015,0.985,0],[0.25,0,0],[0.5,0,0],[0.75,0,0],[1,0.25,0],[1,0.5,0],[1,0.75,0],[0.75,1,0],[0.5,1,0],[0.25,1,0],[0,0.75,0],[0,0.5,0],[0,0.25,0]];verticalLabelPosition=bottom;html=1;verticalAlign=top;aspect=fixed;align=center;pointerEvents=1;shape=mxgraph.cisco19.rect;prIcon=wireless_lan_controller;fillColor=#FAFAFA;strokeColor=#005073;" parent="1" vertex="1">
          <mxGeometry x="749" y="353" width="77" height="60.16" as="geometry" />
        </mxCell>
        <mxCell id="mIhJ6IyPEhb2iyAgKl9o-2" value="" style="points=[[0.03,0.36,0],[0.18,0,0],[0.5,0.34,0],[0.82,0,0],[0.97,0.36,0],[1,0.67,0],[0.975,0.975,0],[0.5,1,0],[0.025,0.975,0],[0,0.67,0]];verticalLabelPosition=bottom;sketch=0;html=1;verticalAlign=top;aspect=fixed;align=center;pointerEvents=1;shape=mxgraph.cisco19.wireless_access_point;fillColor=#005073;strokeColor=none;" parent="1" vertex="1">
          <mxGeometry x="251" y="358" width="76" height="76" as="geometry" />
        </mxCell>
        <mxCell id="mIhJ6IyPEhb2iyAgKl9o-3" value="&lt;b&gt;Embeded wireless controller&lt;/b&gt;" style="text;html=1;resizable=0;autosize=1;align=center;verticalAlign=middle;points=[];fillColor=none;strokeColor=none;rounded=0;" parent="1" vertex="1">
          <mxGeometry x="201" y="434" width="181" height="26" as="geometry" />
        </mxCell>
        <mxCell id="mIhJ6IyPEhb2iyAgKl9o-4" value="&lt;b&gt;wireless controller&amp;nbsp;&lt;/b&gt;" style="text;html=1;resizable=0;autosize=1;align=center;verticalAlign=middle;points=[];fillColor=none;strokeColor=none;rounded=0;" parent="1" vertex="1">
          <mxGeometry x="693.5" y="438" width="127" height="26" as="geometry" />
        </mxCell>
        <mxCell id="mIhJ6IyPEhb2iyAgKl9o-5" value="" style="points=[[0.03,0.36,0],[0.18,0,0],[0.5,0.34,0],[0.82,0,0],[0.97,0.36,0],[1,0.67,0],[0.975,0.975,0],[0.5,1,0],[0.025,0.975,0],[0,0.67,0]];verticalLabelPosition=bottom;sketch=0;html=1;verticalAlign=top;aspect=fixed;align=center;pointerEvents=1;shape=mxgraph.cisco19.wireless_access_point;fillColor=#005073;strokeColor=none;" parent="1" vertex="1">
          <mxGeometry x="173" y="248" width="50" height="50" as="geometry" />
        </mxCell>
        <mxCell id="mIhJ6IyPEhb2iyAgKl9o-7" value="" style="sketch=0;points=[[0.015,0.015,0],[0.985,0.015,0],[0.985,0.985,0],[0.015,0.985,0],[0.25,0,0],[0.5,0,0],[0.75,0,0],[1,0.25,0],[1,0.5,0],[1,0.75,0],[0.75,1,0],[0.5,1,0],[0.25,1,0],[0,0.75,0],[0,0.5,0],[0,0.25,0]];verticalLabelPosition=bottom;html=1;verticalAlign=top;aspect=fixed;align=center;pointerEvents=1;shape=mxgraph.cisco19.rect;prIcon=wireless_lan_controller;fillColor=#FAFAFA;strokeColor=#005073;" parent="1" vertex="1">
          <mxGeometry x="728" y="375.92" width="77" height="60.16" as="geometry" />
        </mxCell>
        <mxCell id="mIhJ6IyPEhb2iyAgKl9o-10" value="" style="curved=1;endArrow=classic;html=1;rounded=0;entryX=0.273;entryY=0.316;entryDx=0;entryDy=0;entryPerimeter=0;exitX=0.94;exitY=0.16;exitDx=0;exitDy=0;exitPerimeter=0;strokeColor=#4D9900;strokeWidth=2;" parent="1" source="mIhJ6IyPEhb2iyAgKl9o-5" target="mIhJ6IyPEhb2iyAgKl9o-1" edge="1">
          <mxGeometry width="50" height="50" relative="1" as="geometry">
            <mxPoint x="558" y="420" as="sourcePoint" />
            <mxPoint x="608" y="370" as="targetPoint" />
            <Array as="points">
              <mxPoint x="517" y="332" />
              <mxPoint x="583" y="195" />
            </Array>
          </mxGeometry>
        </mxCell>
        <mxCell id="mIhJ6IyPEhb2iyAgKl9o-12" value="" style="curved=1;endArrow=classic;html=1;rounded=0;entryX=0.605;entryY=0.342;entryDx=0;entryDy=0;entryPerimeter=0;exitX=0.5;exitY=1;exitDx=0;exitDy=0;exitPerimeter=0;strokeColor=#3112FF;strokeWidth=2;startArrow=none;" parent="1" source="mIhJ6IyPEhb2iyAgKl9o-18" target="mIhJ6IyPEhb2iyAgKl9o-2" edge="1">
          <mxGeometry width="50" height="50" relative="1" as="geometry">
            <mxPoint x="230" y="266" as="sourcePoint" />
            <mxPoint x="780.0210000000002" y="382.01055999999994" as="targetPoint" />
            <Array as="points">
              <mxPoint x="176" y="379" />
            </Array>
          </mxGeometry>
        </mxCell>
        <mxCell id="mIhJ6IyPEhb2iyAgKl9o-15" value="" style="shape=link;html=1;rounded=0;strokeColor=#000000;strokeWidth=2;exitX=1.002;exitY=0.564;exitDx=0;exitDy=0;exitPerimeter=0;entryX=0;entryY=0.577;entryDx=0;entryDy=0;entryPerimeter=0;startArrow=none;" parent="1" source="mIhJ6IyPEhb2iyAgKl9o-20" target="mIhJ6IyPEhb2iyAgKl9o-6" edge="1">
          <mxGeometry width="100" relative="1" as="geometry">
            <mxPoint x="533" y="395" as="sourcePoint" />
            <mxPoint x="633" y="395" as="targetPoint" />
          </mxGeometry>
        </mxCell>
        <mxCell id="mIhJ6IyPEhb2iyAgKl9o-17" value="&lt;b&gt;Primary&lt;/b&gt;" style="text;html=1;resizable=0;autosize=1;align=center;verticalAlign=middle;points=[];fillColor=#d5e8d4;strokeColor=#82b366;rounded=0;" parent="1" vertex="1">
          <mxGeometry x="527" y="213" width="63" height="26" as="geometry" />
        </mxCell>
        <mxCell id="mIhJ6IyPEhb2iyAgKl9o-18" value="&lt;b&gt;secondary&lt;/b&gt;" style="text;html=1;resizable=0;autosize=1;align=center;verticalAlign=middle;points=[];fillColor=#e1d5e7;strokeColor=#9673a6;rounded=0;" parent="1" vertex="1">
          <mxGeometry x="147" y="324" width="78" height="26" as="geometry" />
        </mxCell>
        <mxCell id="mIhJ6IyPEhb2iyAgKl9o-19" value="" style="curved=1;endArrow=none;html=1;rounded=0;entryX=0.605;entryY=0.342;entryDx=0;entryDy=0;entryPerimeter=0;exitX=0.5;exitY=1;exitDx=0;exitDy=0;exitPerimeter=0;strokeColor=#3112FF;strokeWidth=2;" parent="1" source="mIhJ6IyPEhb2iyAgKl9o-5" target="mIhJ6IyPEhb2iyAgKl9o-18" edge="1">
          <mxGeometry width="50" height="50" relative="1" as="geometry">
            <mxPoint x="198" y="298" as="sourcePoint" />
            <mxPoint x="296.98" y="383.99199999999996" as="targetPoint" />
            <Array as="points" />
          </mxGeometry>
        </mxCell>
        <mxCell id="mIhJ6IyPEhb2iyAgKl9o-20" value="" style="sketch=0;points=[[0,0,0],[0.25,0,0],[0.5,0,0],[0.75,0,0],[1,0,0],[0,1,0],[0.25,1,0],[0.5,1,0],[0.75,1,0],[1,1,0],[0,0.25,0],[0,0.5,0],[0,0.75,0],[1,0.25,0],[1,0.5,0],[1,0.75,0]];outlineConnect=0;fontColor=#232F3E;gradientColor=#4D72F3;gradientDirection=north;fillColor=#3334B9;strokeColor=#ffffff;dashed=0;verticalLabelPosition=bottom;verticalAlign=top;align=center;html=1;fontSize=12;fontStyle=0;aspect=fixed;shape=mxgraph.aws4.resourceIcon;resIcon=mxgraph.aws4.cloud_control_api;" parent="1" vertex="1">
          <mxGeometry x="513" y="347" width="78" height="78" as="geometry" />
        </mxCell>
        <mxCell id="mIhJ6IyPEhb2iyAgKl9o-21" value="" style="shape=link;html=1;rounded=0;strokeColor=#000000;strokeWidth=2;exitX=1.002;exitY=0.564;exitDx=0;exitDy=0;exitPerimeter=0;entryX=0;entryY=0.577;entryDx=0;entryDy=0;entryPerimeter=0;endArrow=none;" parent="1" source="mIhJ6IyPEhb2iyAgKl9o-9" target="mIhJ6IyPEhb2iyAgKl9o-20" edge="1">
          <mxGeometry width="100" relative="1" as="geometry">
            <mxPoint x="438.66200000000003" y="393.08799999999997" as="sourcePoint" />
            <mxPoint x="655" y="391.18399999999997" as="targetPoint" />
          </mxGeometry>
        </mxCell>
        <mxCell id="mIhJ6IyPEhb2iyAgKl9o-22" value="&lt;b&gt;IPVPN&lt;/b&gt;" style="text;html=1;resizable=0;autosize=1;align=center;verticalAlign=middle;points=[];fillColor=none;strokeColor=none;rounded=0;" parent="1" vertex="1">
          <mxGeometry x="525.5" y="423" width="54" height="26" as="geometry" />
        </mxCell>
        <mxCell id="mIhJ6IyPEhb2iyAgKl9o-25" value="" style="shape=image;html=1;verticalAlign=top;verticalLabelPosition=bottom;labelBackgroundColor=#ffffff;imageAspect=0;aspect=fixed;image=https://cdn2.iconfinder.com/data/icons/freecns-cumulus/32/519791-101_Warning-128.png;dashed=1;fontColor=#FF2130;" parent="1" vertex="1">
          <mxGeometry x="522" y="353" width="61" height="61" as="geometry" />
        </mxCell>
        <mxCell id="mIhJ6IyPEhb2iyAgKl9o-26" value="" style="sketch=0;points=[[0.015,0.015,0],[0.985,0.015,0],[0.985,0.985,0],[0.015,0.985,0],[0.25,0,0],[0.5,0,0],[0.75,0,0],[1,0.25,0],[1,0.5,0],[1,0.75,0],[0.75,1,0],[0.5,1,0],[0.25,1,0],[0,0.75,0],[0,0.5,0],[0,0.25,0]];verticalLabelPosition=bottom;html=1;verticalAlign=top;aspect=fixed;align=center;pointerEvents=1;shape=mxgraph.cisco19.rect;prIcon=acs;fillColor=#FAFAFA;strokeColor=#005073;dashed=1;labelBackgroundColor=#FF1764;fontColor=#FF2130;" parent="1" vertex="1">
          <mxGeometry x="898" y="252" width="64" height="50" as="geometry" />
        </mxCell>
        <mxCell id="mIhJ6IyPEhb2iyAgKl9o-27" value="&lt;b&gt;ISE&lt;/b&gt;" style="text;html=1;resizable=0;autosize=1;align=center;verticalAlign=middle;points=[];fillColor=none;strokeColor=none;rounded=0;" parent="1" vertex="1">
          <mxGeometry x="915" y="302" width="37" height="26" as="geometry" />
        </mxCell>
        <mxCell id="mIhJ6IyPEhb2iyAgKl9o-28" value="" style="endArrow=classic;html=1;rounded=0;fontColor=#FF2130;strokeColor=#25B309;strokeWidth=2;entryX=0.015;entryY=0.985;entryDx=0;entryDy=0;entryPerimeter=0;exitX=0.985;exitY=0.015;exitDx=0;exitDy=0;exitPerimeter=0;dashed=1;startArrow=classic;startFill=1;endFill=1;" parent="1" source="mIhJ6IyPEhb2iyAgKl9o-1" target="mIhJ6IyPEhb2iyAgKl9o-26" edge="1">
          <mxGeometry width="50" height="50" relative="1" as="geometry">
            <mxPoint x="549" y="685" as="sourcePoint" />
            <mxPoint x="599" y="635" as="targetPoint" />
          </mxGeometry>
        </mxCell>
        <mxCell id="mIhJ6IyPEhb2iyAgKl9o-29" value="&lt;b&gt;&lt;font color=&quot;#4d9900&quot;&gt;802.1x&lt;/font&gt;&lt;/b&gt;" style="text;html=1;resizable=0;autosize=1;align=center;verticalAlign=middle;points=[];fillColor=none;strokeColor=none;rounded=0;" parent="1" vertex="1">
          <mxGeometry x="814" y="298" width="55" height="26" as="geometry" />
        </mxCell>
        <mxCell id="mIhJ6IyPEhb2iyAgKl9o-31" value="" style="points=[[0.005,0.09,0],[0.08,0,0],[0.76,0.25,0],[1,0.92,0],[0.91,0.995,0],[0.57,0.995,0],[0.045,0.955,0],[0.005,0.43,0]];verticalLabelPosition=bottom;sketch=0;html=1;verticalAlign=top;aspect=fixed;align=center;pointerEvents=1;shape=mxgraph.cisco19.3g_4g_indicator;fillColor=#005073;strokeColor=none;dashed=1;labelBackgroundColor=#FF1764;fontColor=#4D9900;" parent="1" vertex="1">
          <mxGeometry x="270" y="480" width="38" height="38" as="geometry" />
        </mxCell>
        <mxCell id="mIhJ6IyPEhb2iyAgKl9o-32" value="&lt;b&gt;&lt;font color=&quot;#8b61ff&quot;&gt;Hidden WLAN&lt;br&gt;PSK pushed via GPO&lt;/font&gt;&lt;br&gt;&lt;/b&gt;" style="text;html=1;resizable=0;autosize=1;align=center;verticalAlign=middle;points=[];fillColor=none;strokeColor=none;rounded=0;" parent="1" vertex="1">
          <mxGeometry x="215" y="517" width="139" height="41" as="geometry" />
        </mxCell>
        <mxCell id="mIhJ6IyPEhb2iyAgKl9o-34" value="" style="outlineConnect=0;dashed=0;verticalLabelPosition=bottom;verticalAlign=top;align=center;html=1;shape=mxgraph.aws3.internet_3;fillColor=#D2D3D3;gradientColor=none;labelBackgroundColor=#FFFFFF;fontColor=#000000;" parent="1" vertex="1">
          <mxGeometry x="178" y="64" width="162.5" height="108" as="geometry" />
        </mxCell>
        <mxCell id="mIhJ6IyPEhb2iyAgKl9o-33" value="" style="aspect=fixed;perimeter=ellipsePerimeter;html=1;align=center;shadow=0;dashed=0;spacingTop=3;image;image=img/lib/active_directory/internet_globe.svg;labelBackgroundColor=#FFFFFF;fontColor=#000000;" parent="1" vertex="1">
          <mxGeometry x="287" y="122" width="50" height="50" as="geometry" />
        </mxCell>
        <mxCell id="mIhJ6IyPEhb2iyAgKl9o-35" value="&lt;b&gt;Internet&lt;/b&gt;" style="text;html=1;resizable=0;autosize=1;align=center;verticalAlign=middle;points=[];fillColor=none;strokeColor=none;rounded=0;" parent="1" vertex="1">
          <mxGeometry x="228.25" y="41" width="62" height="26" as="geometry" />
        </mxCell>
        <mxCell id="qZsp6Fqz-R1ea0rnndBy-1" value="&lt;b&gt;KVK-Kantoor&lt;/b&gt;" style="text;html=1;resizable=0;autosize=1;align=center;verticalAlign=middle;points=[];fillColor=none;strokeColor=none;rounded=0;" vertex="1" parent="1">
          <mxGeometry x="333" y="181" width="93" height="26" as="geometry" />
        </mxCell>
        <mxCell id="qZsp6Fqz-R1ea0rnndBy-2" value="&lt;b&gt;Rekencentrum&lt;/b&gt;" style="text;html=1;resizable=0;autosize=1;align=center;verticalAlign=middle;points=[];fillColor=none;strokeColor=none;rounded=0;" vertex="1" parent="1">
          <mxGeometry x="940" y="174" width="101" height="26" as="geometry" />
        </mxCell>
        <mxCell id="qZsp6Fqz-R1ea0rnndBy-3" value="" style="shape=image;html=1;verticalAlign=top;verticalLabelPosition=bottom;labelBackgroundColor=#ffffff;imageAspect=0;aspect=fixed;image=https://cdn0.iconfinder.com/data/icons/construction-2-21/512/construction-industry-building-50-128.png" vertex="1" parent="1">
          <mxGeometry x="87" y="153" width="64" height="64" as="geometry" />
        </mxCell>
        <mxCell id="qZsp6Fqz-R1ea0rnndBy-4" value="" style="shape=image;html=1;verticalAlign=top;verticalLabelPosition=bottom;labelBackgroundColor=#ffffff;imageAspect=0;aspect=fixed;image=https://cdn4.iconfinder.com/data/icons/for-your-interface-free-samples/128/Theatre-128.png" vertex="1" parent="1">
          <mxGeometry x="639" y="133" width="84" height="84" as="geometry" />
        </mxCell>
      </root>
    </mxGraphModel>
  </diagram>
</mxfile>
